<svg width="39" height="39" viewBox="0 0 39 39" fill="none" xmlns="http://www.w3.org/2000/svg">
<path fill-rule="evenodd" clip-rule="evenodd" d="M31.621 10.489C32.5599 9.19673 32.2734 7.38803 30.9811 6.44915L27.3119 3.78328C26.0196 2.8444 24.2109 3.13087 23.272 4.42313L9.15082 23.8593L6.86603 33.5127C6.77844 33.8828 6.84016 34.2725 7.03783 34.5974C7.45294 35.2797 8.34257 35.4963 9.02488 35.0812L17.4998 29.9252L31.621 10.489ZM26.722 12.3114L29.2811 8.78899L25.6119 6.12313L23.0527 9.64549L26.722 12.3114ZM24.8607 14.8732L21.1914 12.2074L11.8317 25.09L10.4773 30.8121L15.5009 27.7559L24.8607 14.8732Z" fill="#212121"/>
</svg>
