<svg width="337" height="74" viewBox="0 0 337 74" fill="none" xmlns="http://www.w3.org/2000/svg">
<path d="M28.86 44.2C27.9133 44.2 27.1267 44.1133 26.5 43.94C25.8733 43.7533 25.3533 43.5267 24.94 43.26L25.36 41.72C25.7333 41.9867 26.22 42.22 26.82 42.42C27.42 42.62 28.12 42.72 28.92 42.72C29.5733 42.72 30.12 42.5933 30.56 42.34C31 42.0867 31.22 41.6733 31.22 41.1C31.22 40.7933 31.1533 40.5533 31.02 40.38C30.9 40.1933 30.7267 40.0467 30.5 39.94C30.2867 39.82 30.0267 39.7333 29.72 39.68C29.4133 39.6133 29.0867 39.5467 28.74 39.48C28.3133 39.3867 27.8867 39.28 27.46 39.16C27.0333 39.0267 26.6467 38.8467 26.3 38.62C25.9667 38.3933 25.6933 38.1067 25.48 37.76C25.2667 37.4133 25.16 36.9733 25.16 36.44C25.16 35.5067 25.5133 34.7733 26.22 34.24C26.94 33.6933 27.94 33.42 29.22 33.42C29.94 33.42 30.5667 33.4867 31.1 33.62C31.6467 33.7533 32.1333 33.9267 32.56 34.14L32.14 35.64C31.9267 35.52 31.7133 35.4133 31.5 35.32C31.3 35.2267 31.0867 35.1533 30.86 35.1C30.6333 35.0333 30.38 34.9867 30.1 34.96C29.8333 34.92 29.5333 34.9 29.2 34.9C28.48 34.9 27.9133 35.0133 27.5 35.24C27.1 35.4533 26.9 35.84 26.9 36.4C26.9 36.6267 26.9533 36.82 27.06 36.98C27.1667 37.1267 27.3133 37.2533 27.5 37.36C27.7 37.4667 27.9333 37.56 28.2 37.64C28.48 37.7067 28.7867 37.78 29.12 37.86C29.5733 37.9533 30.0267 38.06 30.48 38.18C30.9467 38.2867 31.36 38.4533 31.72 38.68C32.0933 38.8933 32.3933 39.1867 32.62 39.56C32.86 39.9333 32.98 40.4333 32.98 41.06C32.98 41.66 32.8533 42.16 32.6 42.56C32.36 42.96 32.04 43.2867 31.64 43.54C31.2533 43.78 30.8133 43.9467 30.32 44.04C29.84 44.1467 29.3533 44.2 28.86 44.2ZM39.4438 44.2C38.7371 44.2 38.0771 44.08 37.4638 43.84C36.8504 43.6 36.3171 43.2533 35.8638 42.8C35.4238 42.3333 35.0771 41.7667 34.8238 41.1C34.5704 40.4333 34.4438 39.6667 34.4438 38.8C34.4438 37.9467 34.5704 37.1867 34.8238 36.52C35.0771 35.84 35.4238 35.2733 35.8638 34.82C36.3171 34.3667 36.8504 34.02 37.4638 33.78C38.0771 33.54 38.7371 33.42 39.4438 33.42C40.1638 33.42 40.8304 33.54 41.4438 33.78C42.0571 34.02 42.5838 34.3667 43.0238 34.82C43.4771 35.2733 43.8304 35.84 44.0838 36.52C44.3504 37.1867 44.4838 37.9467 44.4838 38.8C44.4838 39.6667 44.3504 40.4333 44.0838 41.1C43.8304 41.7667 43.4771 42.3333 43.0238 42.8C42.5838 43.2533 42.0571 43.6 41.4438 43.84C40.8304 44.08 40.1638 44.2 39.4438 44.2ZM39.4438 42.62C39.9104 42.62 40.3438 42.5467 40.7438 42.4C41.1438 42.24 41.4838 42.0067 41.7638 41.7C42.0571 41.38 42.2838 40.98 42.4438 40.5C42.6171 40.02 42.7038 39.4533 42.7038 38.8C42.7038 38.1467 42.6171 37.58 42.4438 37.1C42.2838 36.62 42.0571 36.2267 41.7638 35.92C41.4838 35.6 41.1438 35.3667 40.7438 35.22C40.3438 35.06 39.9104 34.98 39.4438 34.98C38.9771 34.98 38.5504 35.06 38.1638 35.22C37.7771 35.3667 37.4371 35.6 37.1438 35.92C36.8638 36.2267 36.6438 36.62 36.4838 37.1C36.3238 37.58 36.2438 38.1467 36.2438 38.8C36.2438 39.4533 36.3238 40.02 36.4838 40.5C36.6438 40.98 36.8638 41.38 37.1438 41.7C37.4371 42.0067 37.7771 42.24 38.1638 42.4C38.5504 42.5467 38.9771 42.62 39.4438 42.62ZM48.8091 35.12V44H47.0491V35.12H45.7891V33.62H47.0491V33.36C47.0491 32.1333 47.3757 31.18 48.0291 30.5C48.6824 29.82 49.5757 29.48 50.7091 29.48C51.2691 29.48 51.7424 29.5467 52.1291 29.68L51.8091 31.26C51.7157 31.22 51.5757 31.18 51.3891 31.14C51.2024 31.0867 51.0024 31.06 50.7891 31.06C50.1757 31.06 49.6891 31.2467 49.3291 31.62C48.9824 31.9933 48.8091 32.5733 48.8091 33.36V33.62H51.8091V35.12H48.8091ZM53.2352 37.1H58.0352V38.7H53.2352V37.1ZM65.5975 34.98C64.7975 34.98 64.1442 35.1667 63.6375 35.54C63.1442 35.9 62.7442 36.3667 62.4375 36.94V44H60.6775V33.62H62.3375L62.3975 35.48H62.4375C62.7175 34.88 63.1575 34.3867 63.7575 34C64.3575 33.6133 65.1175 33.42 66.0375 33.42C67.0642 33.42 67.8775 33.6933 68.4775 34.24C69.0908 34.7733 69.3975 35.6 69.3975 36.72V44H67.6375V36.9C67.6375 36.18 67.4575 35.68 67.0975 35.4C66.7375 35.12 66.2375 34.98 65.5975 34.98ZM75.0363 42.62C75.4096 42.62 75.7496 42.5667 76.0563 42.46C76.3763 42.3533 76.6563 42.2133 76.8963 42.04C77.1496 41.8667 77.3696 41.68 77.5563 41.48C77.7563 41.28 77.9229 41.08 78.0563 40.88V39.16H76.6963C75.4429 39.16 74.5629 39.3267 74.0563 39.66C73.5496 39.98 73.2962 40.44 73.2962 41.04C73.2962 41.5067 73.4363 41.8867 73.7163 42.18C73.9963 42.4733 74.4363 42.62 75.0363 42.62ZM78.1563 42.28C78.0096 42.5067 77.8296 42.74 77.6163 42.98C77.4163 43.2067 77.1696 43.4133 76.8763 43.6C76.5963 43.7733 76.2696 43.9133 75.8963 44.02C75.5229 44.14 75.1096 44.2 74.6563 44.2C73.7229 44.2 72.9696 43.94 72.3963 43.42C71.8229 42.8867 71.5363 42.1267 71.5363 41.14C71.5363 38.8867 73.2029 37.76 76.5362 37.76H78.0563V36.98C78.0563 36.26 77.8629 35.7467 77.4763 35.44C77.1029 35.1333 76.4763 34.98 75.5963 34.98C74.9163 34.98 74.3096 35.0667 73.7763 35.24C73.2563 35.4133 72.8029 35.6133 72.4163 35.84L71.9963 34.38C72.3563 34.1533 72.8563 33.94 73.4963 33.74C74.1363 33.5267 74.8763 33.42 75.7163 33.42C77.0496 33.42 78.0629 33.6933 78.7563 34.24C79.4629 34.7867 79.8163 35.6267 79.8163 36.76V42.32C79.8163 42.44 79.8163 42.58 79.8163 42.74C79.8296 42.8867 79.8363 43.04 79.8363 43.2C79.8496 43.36 79.8629 43.5133 79.8763 43.66C79.8896 43.7933 79.9029 43.9067 79.9163 44H78.2963C78.2696 43.8133 78.2363 43.5533 78.1963 43.22C78.1696 42.8733 78.1563 42.5733 78.1563 42.32V42.28ZM87.9222 43.72C87.7089 43.8533 87.4022 43.9667 87.0022 44.06C86.6022 44.1533 86.2089 44.2 85.8222 44.2C85.3155 44.2 84.8822 44.1267 84.5222 43.98C84.1622 43.8333 83.8689 43.64 83.6422 43.4C83.4155 43.1467 83.2489 42.8667 83.1422 42.56C83.0355 42.24 82.9822 41.9133 82.9822 41.58V35.12H81.7422V33.62H82.9822V31.44H84.7622V33.62H87.7622V35.12H84.7622V41.36C84.7622 41.8 84.8689 42.12 85.0822 42.32C85.3089 42.52 85.6355 42.62 86.0622 42.62C86.3289 42.62 86.5955 42.5867 86.8622 42.52C87.1422 42.44 87.3955 42.3333 87.6222 42.2L87.9222 43.72ZM94.1217 42C94.5484 42 94.9417 41.9333 95.3017 41.8C95.6751 41.6533 95.9951 41.4333 96.2617 41.14C96.5417 40.8467 96.7551 40.4867 96.9017 40.06C97.0617 39.62 97.1417 39.1067 97.1417 38.52C97.1417 37.92 97.0617 37.4 96.9017 36.96C96.7551 36.52 96.5417 36.1533 96.2617 35.86C95.9951 35.5667 95.6751 35.3467 95.3017 35.2C94.9417 35.0533 94.5417 34.98 94.1017 34.98C93.6617 34.98 93.2484 35.0533 92.8617 35.2C92.4884 35.3467 92.1617 35.5667 91.8817 35.86C91.6017 36.1533 91.3817 36.5267 91.2217 36.98C91.0617 37.42 90.9817 37.9333 90.9817 38.52C90.9817 39.1067 91.0617 39.62 91.2217 40.06C91.3817 40.4867 91.6017 40.8467 91.8817 41.14C92.1617 41.42 92.4884 41.6333 92.8617 41.78C93.2484 41.9267 93.6684 42 94.1217 42ZM93.5417 47.58C92.5684 47.58 91.7751 47.5 91.1617 47.34C90.5484 47.18 90.0951 47.0133 89.8017 46.84L90.1617 45.22C90.4951 45.3933 90.9284 45.5667 91.4617 45.74C91.9951 45.9133 92.6951 46 93.5617 46C94.8551 46 95.7684 45.74 96.3017 45.22C96.8484 44.7 97.1217 43.9733 97.1217 43.04V41.54C96.8151 42.1533 96.3817 42.6467 95.8217 43.02C95.2751 43.3933 94.5951 43.58 93.7817 43.58C93.1684 43.58 92.5817 43.4733 92.0217 43.26C91.4751 43.0467 90.9884 42.7333 90.5617 42.32C90.1484 41.8933 89.8151 41.3667 89.5617 40.74C89.3217 40.1 89.2017 39.36 89.2017 38.52C89.2017 37.6667 89.3217 36.9267 89.5617 36.3C89.8151 35.66 90.1484 35.1267 90.5617 34.7C90.9884 34.2733 91.4817 33.9533 92.0417 33.74C92.6017 33.5267 93.1951 33.42 93.8217 33.42C94.6484 33.42 95.3417 33.6067 95.9017 33.98C96.4751 34.3533 96.9217 34.86 97.2417 35.5L97.2617 35.28C97.2617 35.04 97.2751 34.7533 97.3017 34.42C97.3284 34.0733 97.3617 33.8067 97.4017 33.62H98.9817C98.9551 33.8067 98.9284 34.0733 98.9017 34.42C98.8884 34.7667 98.8817 35.0533 98.8817 35.28V43.02C98.8817 43.6867 98.7817 44.3 98.5817 44.86C98.3817 45.42 98.0617 45.9 97.6217 46.3C97.1951 46.7 96.6417 47.0133 95.9617 47.24C95.2951 47.4667 94.4884 47.58 93.5417 47.58ZM105.932 34.98C105.159 34.98 104.499 35.2133 103.952 35.68C103.405 36.1467 103.059 36.8533 102.912 37.8H108.492C108.519 37.32 108.472 36.9067 108.352 36.56C108.232 36.2 108.059 35.9067 107.832 35.68C107.605 35.44 107.325 35.2667 106.992 35.16C106.672 35.04 106.319 34.98 105.932 34.98ZM110.072 43.12C109.925 43.2267 109.739 43.34 109.512 43.46C109.299 43.58 109.039 43.7 108.732 43.82C108.425 43.9267 108.072 44.0133 107.672 44.08C107.285 44.16 106.852 44.2 106.372 44.2C104.625 44.2 103.299 43.7267 102.392 42.78C101.485 41.8333 101.032 40.5067 101.032 38.8C101.032 37.96 101.152 37.2067 101.392 36.54C101.645 35.8733 101.992 35.3133 102.432 34.86C102.872 34.3933 103.392 34.04 103.992 33.8C104.605 33.5467 105.265 33.42 105.972 33.42C106.705 33.42 107.365 33.5467 107.952 33.8C108.539 34.0533 109.019 34.4267 109.392 34.92C109.779 35.4133 110.039 36.0267 110.172 36.76C110.319 37.48 110.319 38.32 110.172 39.28H102.852C102.919 40.4 103.259 41.24 103.872 41.8C104.485 42.3467 105.352 42.62 106.472 42.62C107.205 42.62 107.825 42.5067 108.332 42.28C108.839 42.04 109.265 41.8 109.612 41.56L110.072 43.12ZM114.191 44H112.431V33.62H113.991L114.151 35.48H114.191C114.471 34.9067 114.891 34.42 115.451 34.02C116.011 33.62 116.745 33.42 117.651 33.42C118.438 33.42 119.091 33.6067 119.611 33.98C120.145 34.3533 120.491 34.9267 120.651 35.7C120.945 34.9933 121.391 34.44 121.991 34.04C122.605 33.6267 123.345 33.42 124.211 33.42C125.171 33.42 125.931 33.6933 126.491 34.24C127.051 34.7733 127.331 35.6 127.331 36.72V44H125.551V36.94C125.551 36.26 125.385 35.7667 125.051 35.46C124.718 35.14 124.265 34.98 123.691 34.98C123.305 34.98 122.965 35.04 122.671 35.16C122.378 35.2667 122.118 35.42 121.891 35.62C121.665 35.82 121.458 36.0533 121.271 36.32C121.085 36.5867 120.911 36.8667 120.751 37.16V44H118.991V36.74C118.991 36.0733 118.825 35.6133 118.491 35.36C118.158 35.1067 117.705 34.98 117.131 34.98C116.758 34.98 116.425 35.0267 116.131 35.12C115.838 35.2133 115.571 35.3467 115.331 35.52C115.105 35.6933 114.898 35.9067 114.711 36.16C114.525 36.4 114.351 36.6667 114.191 36.96V44ZM134.343 44.2C133.636 44.2 132.976 44.08 132.363 43.84C131.75 43.6 131.216 43.2533 130.763 42.8C130.323 42.3333 129.976 41.7667 129.723 41.1C129.47 40.4333 129.343 39.6667 129.343 38.8C129.343 37.9467 129.47 37.1867 129.723 36.52C129.976 35.84 130.323 35.2733 130.763 34.82C131.216 34.3667 131.75 34.02 132.363 33.78C132.976 33.54 133.636 33.42 134.343 33.42C135.063 33.42 135.73 33.54 136.343 33.78C136.956 34.02 137.483 34.3667 137.923 34.82C138.376 35.2733 138.73 35.84 138.983 36.52C139.25 37.1867 139.383 37.9467 139.383 38.8C139.383 39.6667 139.25 40.4333 138.983 41.1C138.73 41.7667 138.376 42.3333 137.923 42.8C137.483 43.2533 136.956 43.6 136.343 43.84C135.73 44.08 135.063 44.2 134.343 44.2ZM134.343 42.62C134.81 42.62 135.243 42.5467 135.643 42.4C136.043 42.24 136.383 42.0067 136.663 41.7C136.956 41.38 137.183 40.98 137.343 40.5C137.516 40.02 137.603 39.4533 137.603 38.8C137.603 38.1467 137.516 37.58 137.343 37.1C137.183 36.62 136.956 36.2267 136.663 35.92C136.383 35.6 136.043 35.3667 135.643 35.22C135.243 35.06 134.81 34.98 134.343 34.98C133.876 34.98 133.45 35.06 133.063 35.22C132.676 35.3667 132.336 35.6 132.043 35.92C131.763 36.2267 131.543 36.62 131.383 37.1C131.223 37.58 131.143 38.1467 131.143 38.8C131.143 39.4533 131.223 40.02 131.383 40.5C131.543 40.98 131.763 41.38 132.043 41.7C132.336 42.0067 132.676 42.24 133.063 42.4C133.45 42.5467 133.876 42.62 134.343 42.62ZM144.204 39.58H143.284V44H141.524V29.68H143.284V38.08H144.284L147.924 33.62H149.924L145.664 38.74L150.004 44H147.864L144.204 39.58ZM155.464 34.98C154.691 34.98 154.031 35.2133 153.484 35.68C152.937 36.1467 152.591 36.8533 152.444 37.8H158.024C158.051 37.32 158.004 36.9067 157.884 36.56C157.764 36.2 157.591 35.9067 157.364 35.68C157.137 35.44 156.857 35.2667 156.524 35.16C156.204 35.04 155.851 34.98 155.464 34.98ZM159.604 43.12C159.457 43.2267 159.271 43.34 159.044 43.46C158.831 43.58 158.571 43.7 158.264 43.82C157.957 43.9267 157.604 44.0133 157.204 44.08C156.817 44.16 156.384 44.2 155.904 44.2C154.157 44.2 152.831 43.7267 151.924 42.78C151.017 41.8333 150.564 40.5067 150.564 38.8C150.564 37.96 150.684 37.2067 150.924 36.54C151.177 35.8733 151.524 35.3133 151.964 34.86C152.404 34.3933 152.924 34.04 153.524 33.8C154.137 33.5467 154.797 33.42 155.504 33.42C156.237 33.42 156.897 33.5467 157.484 33.8C158.071 34.0533 158.551 34.4267 158.924 34.92C159.311 35.4133 159.571 36.0267 159.704 36.76C159.851 37.48 159.851 38.32 159.704 39.28H152.384C152.451 40.4 152.791 41.24 153.404 41.8C154.017 42.3467 154.884 42.62 156.004 42.62C156.737 42.62 157.357 42.5067 157.864 42.28C158.371 42.04 158.797 41.8 159.144 41.56L159.604 43.12ZM166.123 34.98C165.35 34.98 164.69 35.2133 164.143 35.68C163.597 36.1467 163.25 36.8533 163.103 37.8H168.683C168.71 37.32 168.663 36.9067 168.543 36.56C168.423 36.2 168.25 35.9067 168.023 35.68C167.797 35.44 167.517 35.2667 167.183 35.16C166.863 35.04 166.51 34.98 166.123 34.98ZM170.263 43.12C170.117 43.2267 169.93 43.34 169.703 43.46C169.49 43.58 169.23 43.7 168.923 43.82C168.617 43.9267 168.263 44.0133 167.863 44.08C167.477 44.16 167.043 44.2 166.563 44.2C164.817 44.2 163.49 43.7267 162.583 42.78C161.677 41.8333 161.223 40.5067 161.223 38.8C161.223 37.96 161.343 37.2067 161.583 36.54C161.837 35.8733 162.183 35.3133 162.623 34.86C163.063 34.3933 163.583 34.04 164.183 33.8C164.797 33.5467 165.457 33.42 166.163 33.42C166.897 33.42 167.557 33.5467 168.143 33.8C168.73 34.0533 169.21 34.4267 169.583 34.92C169.97 35.4133 170.23 36.0267 170.363 36.76C170.51 37.48 170.51 38.32 170.363 39.28H163.043C163.11 40.4 163.45 41.24 164.063 41.8C164.677 42.3467 165.543 42.62 166.663 42.62C167.397 42.62 168.017 42.5067 168.523 42.28C169.03 42.04 169.457 41.8 169.803 41.56L170.263 43.12Z" fill="#212121"/>
<rect x="202" y="12" width="123" height="50" rx="25" fill="#2AAD2E"/>
<path fill-rule="evenodd" clip-rule="evenodd" d="M245.697 25.5358L249.432 25.1208L249.017 28.8554C248.633 32.3083 247.086 35.5279 244.629 37.9845L242.056 40.5711C242.972 41.4874 243.114 42.923 242.395 44.0012L240.234 47.2431C239.709 48.0306 238.595 48.141 237.925 47.4717L236.428 45.9739L236.852 43.0041L231.549 37.7008L228.579 38.125L227.081 36.6273C226.412 35.958 226.522 34.8436 227.31 34.3186L230.551 32.1574C231.63 31.4386 233.065 31.5807 233.982 32.497L236.568 29.9235C239.025 27.4669 242.244 25.9195 245.697 25.5358ZM247.228 28.6566L247.394 27.1583L245.896 27.3248C242.849 27.6633 240.009 29.0287 237.841 31.1963L235.267 33.7698C234.561 34.4764 233.415 34.4764 232.709 33.7698C232.399 33.4602 231.914 33.4122 231.55 33.6551L228.613 35.6133L229.215 36.2159L232.185 35.7916L238.761 42.3677L238.337 45.3375L238.939 45.9401L240.898 43.0028C241.14 42.6385 241.092 42.1535 240.783 41.8439C240.076 41.1373 240.076 39.9918 240.783 39.2852L243.356 36.7117C245.524 34.5441 246.889 31.7033 247.228 28.6566Z" fill="white"/>
<path d="M231.303 39.8906L229.217 45.3709L234.698 43.2845L231.303 39.8906Z" fill="white"/>
<path d="M264.82 44H261.86L267.04 32H260.7V29.66H270.16V31.28L264.82 44ZM281.927 36.06C281.927 37.18 281.801 38.2333 281.547 39.22C281.294 40.2067 280.901 41.0733 280.367 41.82C279.834 42.5533 279.154 43.1333 278.327 43.56C277.514 43.9867 276.541 44.2 275.407 44.2C273.967 44.2 272.814 43.92 271.947 43.36V41.06C272.507 41.38 273.067 41.62 273.627 41.78C274.187 41.9267 274.721 42 275.227 42C276.361 42 277.234 41.64 277.847 40.92C278.461 40.2 278.861 39.2067 279.047 37.94C278.607 38.4333 278.101 38.7933 277.527 39.02C276.967 39.2333 276.347 39.34 275.667 39.34C275.067 39.34 274.487 39.2467 273.927 39.06C273.367 38.8733 272.874 38.5867 272.447 38.2C272.021 37.8 271.681 37.3 271.427 36.7C271.174 36.0867 271.047 35.3667 271.047 34.54C271.047 33.7267 271.194 33.0067 271.487 32.38C271.794 31.74 272.194 31.2067 272.687 30.78C273.194 30.34 273.767 30.0133 274.407 29.8C275.061 29.5733 275.741 29.46 276.447 29.46C277.247 29.46 277.981 29.58 278.647 29.82C279.327 30.06 279.907 30.4467 280.387 30.98C280.881 31.5 281.261 32.18 281.527 33.02C281.794 33.86 281.927 34.8733 281.927 36.06ZM276.427 31.68C276.094 31.68 275.774 31.74 275.467 31.86C275.161 31.9667 274.894 32.14 274.667 32.38C274.441 32.6067 274.254 32.9 274.107 33.26C273.974 33.6067 273.907 34.02 273.907 34.5C273.907 34.9533 273.974 35.3467 274.107 35.68C274.241 36.0133 274.414 36.2933 274.627 36.52C274.854 36.7333 275.114 36.8933 275.407 37C275.701 37.1067 276.007 37.16 276.327 37.16C276.674 37.16 277.001 37.1067 277.307 37C277.627 36.88 277.901 36.7133 278.127 36.5C278.367 36.2733 278.554 35.9933 278.687 35.66C278.834 35.3267 278.907 34.9333 278.907 34.48C278.907 33.5333 278.667 32.8333 278.187 32.38C277.721 31.9133 277.134 31.68 276.427 31.68ZM286.688 44.06L294.448 29.62H296.848L289.088 44.06H286.688ZM290.448 33.64C290.448 34.2933 290.348 34.8733 290.148 35.38C289.962 35.8733 289.695 36.2933 289.348 36.64C289.015 36.9867 288.615 37.2533 288.148 37.44C287.695 37.6133 287.202 37.7 286.668 37.7C286.122 37.7 285.622 37.62 285.168 37.46C284.715 37.2867 284.315 37.0333 283.968 36.7C283.635 36.3667 283.375 35.9533 283.188 35.46C283.002 34.9533 282.908 34.3733 282.908 33.72C282.908 33.0667 283.002 32.4933 283.188 32C283.375 31.4933 283.635 31.0667 283.968 30.72C284.315 30.3733 284.715 30.1133 285.168 29.94C285.622 29.7533 286.122 29.66 286.668 29.66C287.202 29.66 287.695 29.7467 288.148 29.92C288.615 30.0933 289.015 30.3467 289.348 30.68C289.695 31.0133 289.962 31.4267 290.148 31.92C290.348 32.4133 290.448 32.9867 290.448 33.64ZM285.268 33.68C285.268 34.52 285.395 35.1133 285.648 35.46C285.902 35.7933 286.242 35.96 286.668 35.96C287.095 35.96 287.435 35.7933 287.688 35.46C287.955 35.1133 288.088 34.52 288.088 33.68C288.088 32.8533 287.955 32.2733 287.688 31.94C287.435 31.5933 287.095 31.42 286.668 31.42C286.242 31.42 285.902 31.5933 285.648 31.94C285.395 32.2733 285.268 32.8533 285.268 33.68ZM300.648 39.94C300.648 40.5933 300.548 41.1733 300.348 41.68C300.148 42.1867 299.875 42.6133 299.528 42.96C299.195 43.2933 298.795 43.5533 298.328 43.74C297.875 43.9133 297.388 44 296.868 44C296.322 44 295.815 43.92 295.348 43.76C294.895 43.5867 294.495 43.3333 294.148 43C293.815 42.6667 293.555 42.2533 293.368 41.76C293.182 41.2533 293.088 40.6733 293.088 40.02C293.088 39.3667 293.182 38.7933 293.368 38.3C293.555 37.7933 293.815 37.3733 294.148 37.04C294.495 36.6933 294.895 36.4333 295.348 36.26C295.815 36.0733 296.322 35.98 296.868 35.98C297.388 35.98 297.875 36.0667 298.328 36.24C298.795 36.4 299.195 36.6467 299.528 36.98C299.875 37.3133 300.148 37.7267 300.348 38.22C300.548 38.7133 300.648 39.2867 300.648 39.94ZM296.868 37.72C296.442 37.72 296.095 37.8933 295.828 38.24C295.575 38.5733 295.448 39.1533 295.448 39.98C295.448 40.82 295.575 41.4133 295.828 41.76C296.095 42.0933 296.442 42.26 296.868 42.26C297.295 42.26 297.635 42.0933 297.888 41.76C298.155 41.4133 298.288 40.82 298.288 39.98C298.288 39.1533 298.155 38.5733 297.888 38.24C297.635 37.8933 297.295 37.72 296.868 37.72Z" fill="white"/>
<rect x="2" y="3" width="333" height="68" rx="22" stroke="#FED42B" stroke-width="4"/>
</svg>
