<svg width="38" height="31" viewBox="0 0 38 31" fill="none" xmlns="http://www.w3.org/2000/svg">
<path fill-rule="evenodd" clip-rule="evenodd" d="M35.9597 8.01855C35.9597 5.80941 34.1688 4.01855 31.9597 4.01855H13.2255C12.3381 4.01855 11.5774 4.39888 11.0703 5.15953L2.7037 15.4283L11.0703 25.697C11.5774 26.3309 12.3381 26.838 13.2255 26.838H31.9597C34.1688 26.838 35.9597 25.0471 35.9597 22.838C35.9597 17.8982 35.9597 12.9584 35.9597 8.01855Z" stroke="#212121" stroke-width="4" stroke-linecap="square"/>
<path fill-rule="evenodd" clip-rule="evenodd" d="M24.6152 21.8692C25.3962 22.6503 26.6626 22.6503 27.4436 21.8692C28.2247 21.0882 28.2247 19.8218 27.4436 19.0408L24.4765 16.0737L27.4436 13.1066C28.2247 12.3255 28.2247 11.0592 27.4436 10.2782C26.6626 9.49712 25.3962 9.49712 24.6152 10.2782L21.6481 13.2453L18.681 10.2782C17.8999 9.49712 16.6336 9.49712 15.8526 10.2782C15.0715 11.0592 15.0715 12.3255 15.8526 13.1066L18.8197 16.0737L15.8526 19.0408C15.0715 19.8218 15.0715 21.0882 15.8526 21.8692C16.6336 22.6503 17.8999 22.6503 18.681 21.8692L21.6481 18.9021L24.6152 21.8692Z" fill="#212121"/>
</svg>
