<svg width="86" height="80" viewBox="0 0 86 80" fill="none" xmlns="http://www.w3.org/2000/svg">
<path fill-rule="evenodd" clip-rule="evenodd" d="M7.94046 73.9953L43 8.25042L78.0595 73.9953H7.94046ZM39.4705 2.11783C40.9763 -0.705947 45.0237 -0.705941 46.5295 2.11783L84.9222 74.1132C86.343 76.7776 84.4123 79.9953 81.3927 79.9953H4.60733C1.58774 79.9953 -0.343024 76.7776 1.07782 74.1132L39.4705 2.11783ZM41.4417 30.0102C40.3372 30.0102 39.4417 30.9056 39.4417 32.0102V51.5737H45.8104V32.0102C45.8104 30.9056 44.915 30.0102 43.8104 30.0102H41.4417ZM42.6261 67.7505C44.9733 67.7505 46.8761 65.8177 46.8761 63.4336C46.8761 61.0494 44.9733 59.1166 42.6261 59.1166C40.2789 59.1166 38.3761 61.0494 38.3761 63.4336C38.3761 65.8177 40.2789 67.7505 42.6261 67.7505Z" fill="#FFB026"/>
</svg>
