<svg width="6" height="26" viewBox="0 0 6 26" fill="none" xmlns="http://www.w3.org/2000/svg">
<path d="M0.421875 3.54687C0.421875 2.12302 1.57614 0.96875 3 0.96875C4.42386 0.96875 5.57812 2.12302 5.57812 3.54687C5.57812 4.97073 4.42386 6.125 3 6.125C1.57614 6.125 0.421875 4.97073 0.421875 3.54687ZM0.421875 13C0.421875 11.5761 1.57614 10.4219 3 10.4219C4.42386 10.4219 5.57812 11.5761 5.57812 13C5.57812 14.4239 4.42386 15.5781 3 15.5781C1.57614 15.5781 0.421875 14.4239 0.421875 13ZM3 19.875C1.57614 19.875 0.421875 21.0293 0.421875 22.4531C0.421875 23.877 1.57614 25.0312 3 25.0312C4.42386 25.0312 5.57812 23.877 5.57812 22.4531C5.57812 21.0293 4.42386 19.875 3 19.875Z" fill="#21201F"/>
</svg>
